<?xml version="1.0" standalone="no"?>
<!DOCTYPE svg PUBLIC "-//W3C//DTD SVG 20010904//EN"
 "http://www.w3.org/TR/2001/REC-SVG-20010904/DTD/svg10.dtd">
<svg version="1.0" xmlns="http://www.w3.org/2000/svg"
 width="700.000000pt" height="700.000000pt" viewBox="0 0 700.000000 700.000000"
 preserveAspectRatio="xMidYMid meet">
<metadata>
Created by potrace 1.11, written by Peter Selinger 2001-2013
</metadata>
<g transform="translate(0.000000,700.000000) scale(0.100000,-0.100000)"
fill="#000000" stroke="none">
<path d="M3329 6746 c-2 -2 -47 -7 -99 -11 -52 -3 -97 -8 -100 -10 -3 -1 -30
-6 -60 -9 -106 -12 -289 -53 -452 -102 -343 -100 -755 -308 -1033 -522 -294
-225 -595 -541 -776 -815 -200 -301 -348 -629 -435 -962 -14 -55 -28 -111 -30
-125 -3 -14 -11 -56 -19 -95 -8 -38 -17 -95 -21 -125 -3 -30 -8 -58 -10 -61
-1 -3 -6 -48 -9 -100 -4 -52 -9 -105 -11 -119 -5 -27 -5 -848 1 -1300 5 -430
17 -1706 19 -1952 l1 -218 110 -1 c61 0 353 -2 650 -4 1593 -11 2328 -8 2490
10 22 3 74 7 115 10 149 9 326 30 435 50 143 27 257 53 350 82 204 62 390 135
545 213 137 68 220 117 365 213 250 165 457 351 690 618 127 144 292 396 409
623 122 236 256 632 292 860 3 21 7 46 9 55 14 76 22 141 30 236 3 39 8 93 11
120 16 176 -1 510 -38 720 -5 33 -12 74 -15 90 -11 76 -67 286 -107 407 -93
280 -216 532 -378 776 -63 95 -193 270 -209 282 -3 3 -25 28 -49 55 -126 148
-307 319 -475 447 -5 4 -23 18 -40 31 -153 121 -448 289 -677 386 -174 74
-477 167 -608 187 -19 3 -42 7 -50 9 -32 9 -90 18 -185 30 -33 3 -71 9 -85 12
-30 6 -545 15 -551 9z"/>
</g>
</svg>
